<?xml version="1.0" encoding="UTF-8"?>
<svg id="Layer_1" xmlns="http://www.w3.org/2000/svg" version="1.1" viewBox="0 0 2106.82 547.76">
  <!-- Generator: Adobe Illustrator 30.0.0, SVG Export Plug-In . SVG Version: 2.1.1 Build 123)  -->
  <g>
    <path d="M713.27,341.05l-11.54-27.24h-63.25l-11.54,27.24h-26.85l61.07-134.33h17.9l61.07,134.33h-26.85ZM646.43,295.15h47.34l-23.67-55.59-23.67,55.59Z"/>
    <path d="M833.43,307.84h25.66c-7.96,21.08-29.64,36.19-55.5,36.19-32.42,0-58.87-23.88-58.87-53.36s26.46-53.35,58.87-53.35c25.87,0,47.94,15.3,55.71,36.56h-25.66c-5.97-9.89-17.31-16.42-30.04-16.42-19.29,0-35.01,14.93-35.01,33.21s15.72,33.21,35.01,33.21c12.73,0,23.68-6.53,29.84-16.05Z"/>
    <path d="M962.56,307.84h25.66c-7.96,21.08-29.64,36.19-55.5,36.19-32.42,0-58.87-23.88-58.87-53.36s26.46-53.35,58.87-53.35c25.87,0,47.94,15.3,55.71,36.56h-25.66c-5.97-9.89-17.31-16.42-30.04-16.42-19.29,0-35.01,14.93-35.01,33.21s15.72,33.21,35.01,33.21c12.73,0,23.68-6.53,29.84-16.05Z"/>
    <path d="M1116.96,309.89c-8.55,19.96-30.04,34.14-55.11,34.14-32.42,0-58.87-23.88-58.87-53.36s26.46-53.35,58.87-53.35,58.89,23.88,58.89,53.35c0,2.61-.2,5.04-.6,7.46h-92.3c3.58,14.74,17.51,25.75,34.01,25.75,11.94,0,22.48-5.6,28.64-13.99h26.46ZM1028.23,281.34h67.23c-4.18-13.8-17.71-23.88-33.62-23.88s-29.23,10.08-33.61,23.88Z"/>
    <path d="M1160.14,311.01c0,7.65,7.96,13.99,17.91,13.99s17.9-6.15,17.9-13.61c0-6.53-6.16-11.38-16.31-13.25-22.88-4.1-41.58-13.99-41.58-30.03,0-16.98,16.31-30.78,37.8-30.78s39.78,14.18,39.78,31.71h-23.87c0-7.09-7.17-12.69-15.91-12.69-7.76,0-13.93,4.86-13.93,10.83,0,6.9,12.73,11.75,26.06,13.99,17.11,2.99,31.83,12.5,31.83,29.29,0,18.47-18.7,33.59-41.77,33.59s-41.77-14.74-41.77-33.02h23.86Z"/>
    <path d="M1258.23,311.01c0,7.65,7.96,13.99,17.91,13.99s17.9-6.15,17.9-13.61c0-6.53-6.16-11.38-16.31-13.25-22.88-4.1-41.58-13.99-41.58-30.03,0-16.98,16.31-30.78,37.8-30.78s39.78,14.18,39.78,31.71h-23.87c0-7.09-7.17-12.69-15.91-12.69-7.76,0-13.93,4.86-13.93,10.83,0,6.9,12.73,11.75,26.06,13.99,17.11,2.99,31.83,12.5,31.83,29.29,0,18.47-18.7,33.59-41.77,33.59s-41.77-14.74-41.77-33.02h23.86Z"/>
    <path d="M1479.25,300.75c-11.54,25.37-38.6,43.28-70.42,43.28-42.17,0-76.39-31.34-76.39-70.15s34.22-70.15,76.39-70.15c32.03,0,59.48,18.1,70.82,43.65h-27.05c-9.15-13.99-25.26-23.13-43.77-23.13-28.64,0-51.72,22.2-51.72,49.62s23.07,49.62,51.72,49.62c18.3,0,34.22-9.14,43.37-22.76h27.05Z"/>
    <path d="M1604.4,341.05h-23.87v-55.41c0-15.48-12.93-28.17-29.04-28.17s-29.05,12.69-29.05,28.17v55.41h-23.87v-134.33h23.87v41.04c7.76-6.52,17.91-10.44,29.05-10.44,29.23,0,52.91,22.2,52.91,49.62v54.1Z"/>
    <path d="M1735.92,309.89c-8.55,19.96-30.04,34.14-55.1,34.14-32.43,0-58.89-23.88-58.89-53.36s26.46-53.35,58.89-53.35,58.87,23.88,58.87,53.35c0,2.61-.19,5.04-.59,7.46h-92.3c3.58,14.74,17.51,25.75,34.02,25.75,11.93,0,22.47-5.6,28.64-13.99h26.46ZM1647.2,281.34h67.23c-4.18-13.8-17.7-23.88-33.61-23.88s-29.24,10.08-33.62,23.88Z"/>
    <path d="M1843.96,307.84h25.66c-7.96,21.08-29.64,36.19-55.5,36.19-32.43,0-58.89-23.88-58.89-53.36s26.46-53.35,58.89-53.35c25.86,0,47.94,15.3,55.69,36.56h-25.66c-5.97-9.89-17.3-16.42-30.03-16.42-19.3,0-35.01,14.93-35.01,33.21s15.71,33.21,35.01,33.21c12.73,0,23.67-6.53,29.83-16.05Z"/>
    <path d="M1889.73,341.05v-134.33h23.87v72.94l38.19-39.36h30.44l-43.36,43.84,53.31,56.91h-31.03l-47.55-52.24v52.24h-23.87Z"/>
  </g>
  <g>
    <polygon points="326.68 122.47 114.64 256.32 154.71 256.32 326.68 147.82 498.66 256.32 538.72 256.32 326.68 122.47"/>
    <path d="M326.72,173.09l-132.81,83.87v93.37c0,22.98,13.08,44.23,34.33,55.71l35.46,19.26,40.91-59.63c1.39-1.99.66-4.65-1.59-5.71-19.19-9.1-31.74-28.82-28.75-50.87,3.12-22.91,23.64-41.17,48.21-42.96,16.6-1.26,31.68,4.78,42.23,15.01l-38.91,36.46-13.02-12.29c-3.92-3.65-10.16-4.52-14.68-1.53-5.71,3.85-6.18,11.36-1.39,15.81l21.32,19.99c2.06,1.93,4.85,3.05,7.77,3.05s5.78-1.13,7.84-3.05l42.96-40.24c1.86,5.11,2.99,10.56,2.99,16.27,0,19.39-11.95,36.12-29.22,44.29-2.26,1.06-2.99,3.78-1.66,5.78l40.91,59.63,35.53-19.26c21.25-11.49,34.33-32.74,34.33-55.71v-93.37l-132.74-83.87Z"/>
  </g>
</svg>