<?xml version="1.0" encoding="UTF-8"?>
<svg id="Layer_1" xmlns="http://www.w3.org/2000/svg" version="1.1" viewBox="0 0 1000 1000">
  <!-- Generator: Adobe Illustrator 30.0.0, SVG Export Plug-In . SVG Version: 2.1.1 Build 123)  -->
  <defs>
    <style>
      .st0 {
        fill: #008900;
      }

      .st1 {
        fill: #37393a;
      }
    </style>
  </defs>
  <g>
    <path class="st1" d="M161.94,722.06l-6.7-15.8h-36.69l-6.7,15.8h-15.57l35.42-77.91h10.38l35.42,77.91h-15.57ZM123.18,695.44h27.46l-13.73-32.24-13.73,32.24Z"/>
    <path class="st1" d="M231.64,702.8h14.88c-4.61,12.22-17.19,20.99-32.19,20.99-18.8,0-34.15-13.85-34.15-30.95s15.34-30.94,34.15-30.94c15,0,27.81,8.87,32.31,21.21h-14.88c-3.46-5.73-10.04-9.52-17.42-9.52-11.19,0-20.31,8.66-20.31,19.26s9.12,19.26,20.31,19.26c7.38,0,13.73-3.79,17.31-9.31Z"/>
    <path class="st1" d="M306.53,702.8h14.88c-4.61,12.22-17.19,20.99-32.19,20.99-18.8,0-34.15-13.85-34.15-30.95s15.34-30.94,34.15-30.94c15,0,27.81,8.87,32.31,21.21h-14.88c-3.46-5.73-10.04-9.52-17.42-9.52-11.19,0-20.31,8.66-20.31,19.26s9.12,19.26,20.31,19.26c7.38,0,13.73-3.79,17.31-9.31Z"/>
    <path class="st1" d="M396.08,703.99c-4.96,11.58-17.42,19.8-31.96,19.8-18.8,0-34.15-13.85-34.15-30.95s15.34-30.94,34.15-30.94,34.16,13.85,34.16,30.94c0,1.52-.12,2.92-.35,4.33h-53.53c2.08,8.55,10.15,14.94,19.72,14.94,6.92,0,13.04-3.25,16.61-8.12h15.35ZM344.62,687.43h39c-2.42-8.01-10.27-13.85-19.5-13.85s-16.96,5.84-19.5,13.85Z"/>
    <path class="st1" d="M421.13,704.64c0,4.44,4.62,8.12,10.39,8.12s10.38-3.57,10.38-7.9c0-3.79-3.57-6.6-9.46-7.69-13.27-2.38-24.11-8.12-24.11-17.42,0-9.85,9.46-17.85,21.92-17.85s23.07,8.22,23.07,18.39h-13.84c0-4.11-4.16-7.36-9.23-7.36-4.5,0-8.08,2.82-8.08,6.28,0,4,7.38,6.82,15.11,8.11,9.92,1.73,18.46,7.25,18.46,16.99,0,10.71-10.85,19.48-24.23,19.48s-24.23-8.55-24.23-19.15h13.84Z"/>
    <path class="st1" d="M478.02,704.64c0,4.44,4.62,8.12,10.39,8.12s10.38-3.57,10.38-7.9c0-3.79-3.57-6.6-9.46-7.69-13.27-2.38-24.11-8.12-24.11-17.42,0-9.85,9.46-17.85,21.92-17.85s23.07,8.22,23.07,18.39h-13.84c0-4.11-4.16-7.36-9.23-7.36-4.5,0-8.08,2.82-8.08,6.28,0,4,7.38,6.82,15.11,8.11,9.92,1.73,18.46,7.25,18.46,16.99,0,10.71-10.85,19.48-24.23,19.48s-24.23-8.55-24.23-19.15h13.84Z"/>
    <path class="st1" d="M606.21,698.69c-6.69,14.72-22.39,25.1-40.85,25.1-24.46,0-44.3-18.18-44.3-40.69s19.85-40.69,44.3-40.69c18.58,0,34.5,10.5,41.08,25.32h-15.69c-5.31-8.12-14.65-13.42-25.38-13.42-16.61,0-29.99,12.88-29.99,28.78s13.38,28.78,29.99,28.78c10.62,0,19.85-5.3,25.15-13.2h15.69Z"/>
    <path class="st1" d="M678.8,722.06h-13.84v-32.14c0-8.98-7.5-16.34-16.84-16.34s-16.85,7.36-16.85,16.34v32.14h-13.84v-77.91h13.84v23.8c4.5-3.78,10.39-6.06,16.85-6.06,16.96,0,30.69,12.88,30.69,28.78v31.38Z"/>
    <path class="st1" d="M755.08,703.99c-4.96,11.58-17.42,19.8-31.96,19.8-18.81,0-34.16-13.85-34.16-30.95s15.35-30.94,34.16-30.94,34.15,13.85,34.15,30.94c0,1.52-.11,2.92-.34,4.33h-53.53c2.08,8.55,10.15,14.94,19.73,14.94,6.92,0,13.03-3.25,16.61-8.12h15.34ZM703.62,687.43h39c-2.42-8.01-10.27-13.85-19.5-13.85s-16.96,5.84-19.5,13.85Z"/>
    <path class="st1" d="M817.74,702.8h14.88c-4.61,12.22-17.19,20.99-32.19,20.99-18.81,0-34.16-13.85-34.16-30.95s15.35-30.94,34.16-30.94c15,0,27.8,8.87,32.3,21.21h-14.88c-3.46-5.73-10.04-9.52-17.42-9.52-11.19,0-20.31,8.66-20.31,19.26s9.11,19.26,20.31,19.26c7.38,0,13.73-3.79,17.3-9.31Z"/>
    <path class="st1" d="M844.29,722.06v-77.91h13.84v42.31l22.15-22.83h17.65l-25.15,25.42,30.92,33h-18l-27.58-30.3v30.3h-13.84Z"/>
  </g>
  <g>
    <polygon class="st0" points="499.99 276.21 293.6 406.5 332.6 406.5 499.99 300.89 667.39 406.5 706.39 406.5 499.99 276.21"/>
    <path class="st0" d="M500.03,325.49l-129.28,81.64v90.88c0,22.36,12.74,43.05,33.42,54.23l34.52,18.75,39.82-58.05c1.36-1.94.65-4.52-1.55-5.56-18.68-8.86-30.9-28.05-27.99-49.51,3.04-22.3,23.01-40.08,46.93-41.82,16.16-1.23,30.83,4.65,41.11,14.61l-37.88,35.49-12.67-11.96c-3.81-3.55-9.89-4.39-14.29-1.49-5.56,3.75-6.01,11.05-1.36,15.38l20.75,19.46c2,1.87,4.72,2.97,7.56,2.97s5.62-1.1,7.63-2.97l41.82-39.17c1.81,4.98,2.91,10.28,2.91,15.84,0,18.87-11.63,35.16-28.44,43.11-2.2,1.03-2.91,3.68-1.62,5.62l39.82,58.05,34.58-18.75c20.68-11.18,33.42-31.87,33.42-54.23v-90.88l-129.21-81.64Z"/>
  </g>
</svg>